<?xml version="1.0" encoding="utf-8"?>
<!-- Generator: Adobe Illustrator 21.0.0, SVG Export Plug-In . SVG Version: 6.00 Build 0)  -->
<svg version="1.1"
	 id="svg2989" inkscape:version="0.48.3.1 r9886" sodipodi:docname="envelope_font_awesome.svg" xmlns:cc="http://creativecommons.org/ns#" xmlns:dc="http://purl.org/dc/elements/1.1/" xmlns:inkscape="http://www.inkscape.org/namespaces/inkscape" xmlns:rdf="http://www.w3.org/1999/02/22-rdf-syntax-ns#" xmlns:sodipodi="http://sodipodi.sourceforge.net/DTD/sodipodi-0.dtd" xmlns:svg="http://www.w3.org/2000/svg"
	 xmlns="http://www.w3.org/2000/svg" xmlns:xlink="http://www.w3.org/1999/xlink" x="0px" y="0px" viewBox="0 0 600 600"
	 style="enable-background:new 0 0 600 600;" xml:space="preserve">
<style type="text/css">
	.st0{fill:#FF6264;}
</style>
<sodipodi:namedview  bordercolor="#666666" borderopacity="1" gridtolerance="10" guidetolerance="10" id="namedview2995" inkscape:current-layer="svg2989" inkscape:cx="896" inkscape:cy="896" inkscape:pageopacity="0" inkscape:pageshadow="2" inkscape:window-height="480" inkscape:window-maximized="0" inkscape:window-width="640" inkscape:window-x="0" inkscape:window-y="25" inkscape:zoom="0.13169643" objecttolerance="10" pagecolor="#ffffff" showgrid="false">
	</sodipodi:namedview>
<g id="g2991" transform="matrix(1,0,0,-1,37.966102,1282.678)">
	<path id="path2993" inkscape:connector-curvature="0" class="st0" d="M514,794v249.1c-6.9-7.8-14.4-14.9-22.4-21.4
		c-57.9-44.5-104-81.1-138.2-109.6c-11-9.3-20-16.5-26.9-21.7c-6.9-5.2-16.3-10.4-28.1-15.7c-11.8-5.3-22.9-7.9-33.2-7.9h-0.3h-0.3
		c-10.4,0-21.5,2.6-33.2,7.9c-11.8,5.3-21.1,10.5-28.1,15.7c-6.9,5.2-15.9,12.4-26.9,21.7c-34.2,28.5-80.2,65.1-138.2,109.6
		c-8,6.5-15.5,13.6-22.4,21.4V794c0-2.8,1-5.2,3.1-7.3s4.5-3.1,7.3-3.1h477.4c2.8,0,5.2,1,7.3,3.1C513,788.8,514,791.2,514,794z
		 M514,1134.9v3.6v4.4c0,0-0.1,1.4-0.2,4.2s-0.4,4.2-1,4.1c-0.5-0.1-1.1,0.9-1.8,2.9c-0.6,2.1-1.6,2.9-2.9,2.4
		c-1.3-0.4-2.8-0.2-4.5,0.8H26.2c-2.8,0-5.2-1-7.3-3.1s-3.1-4.5-3.1-7.3c0-36.3,15.9-67,47.7-92.1c41.7-32.9,85.1-67.1,130.1-102.8
		c1.3-1.1,5.1-4.3,11.4-9.6s11.2-9.4,14.9-12.2c3.7-2.8,8.5-6.2,14.4-10.2s11.4-7,16.4-8.9c5-1.9,9.6-2.9,13.9-2.9h0.3h0.3
		c4.3,0,9,1,13.9,2.9c5,1.9,10.4,4.9,16.4,8.9c5.9,4,10.8,7.4,14.4,10.2c3.7,2.8,8.6,6.9,14.9,12.2s10.1,8.5,11.4,9.6
		c45,35.7,88.3,69.9,130.1,102.8c11.7,9.3,22.5,21.8,32.6,37.5C509,1107.9,514,1122.1,514,1134.9z M555.5,1146.9V794
		c0-14.3-5.1-26.5-15.2-36.6s-22.4-15.2-36.6-15.2H26.2c-14.3,0-26.5,5.1-36.6,15.2s-15.2,22.4-15.2,36.6v352.9
		c0,14.3,5.1,26.5,15.2,36.6c10.2,10.2,22.4,15.2,36.6,15.2h477.4c14.3,0,26.5-5.1,36.6-15.2
		C550.5,1173.4,555.5,1161.2,555.5,1146.9z"/>
</g>
</svg>
